<svg width="331" height="530" viewBox="0 0 331 530" fill="none" xmlns="http://www.w3.org/2000/svg">
<path d="M66.2437 0.61527C62.5832 1.49883 55.7672 5.97971 55.7672 7.55749C55.7672 7.80994 53.8108 12.0384 51.4126 17.0242C49.0775 22.0099 46.4899 27.5006 45.6695 29.2677C44.9121 30.9717 43.8392 33.2437 43.3343 34.3166C41.1886 38.6713 34.3095 56.2793 32.2268 62.9059C30.1441 69.2802 28.7557 75.5282 27.7459 82.8491C27.5566 84.1744 27.4935 85.1842 27.6828 85.0579C27.809 84.9317 28.945 82.0917 30.3335 78.8099L32.7317 72.8144L33.0472 75.3388L33.4259 77.8633L33.9308 75.8437C34.3726 74.0135 38.2223 64.9255 42.009 56.721C51.097 37.2197 64.5397 20.8739 75.4579 16.0775C78.4872 14.7522 79.0552 14.689 80.4437 15.3833C81.2641 15.8882 84.1041 17.1504 86.6917 18.2864C89.2792 19.4224 93.0659 21.5682 95.0223 23.0197C101.333 27.6268 109.79 28.8259 115.597 25.8597C117.932 24.6606 121.213 21.6313 120.709 21.1264C120.582 21.0002 117.932 20.1166 114.776 19.1699C104.741 16.1406 96.3477 11.4073 89.5317 4.90682C86.1868 1.75127 85.3032 1.18327 82.0215 0.61527C77.6037 -0.205177 69.7148 -0.205177 66.2437 0.61527Z" fill="white"/>
<path d="M275.583 60.6971C274.132 61.1389 271.986 62.338 270.85 63.4109C263.024 70.9211 251.664 77.0429 240.052 80.0722L237.275 80.8296L240.115 83.5433C244.974 88.1504 250.591 88.5291 258.733 84.8056C260.626 83.922 262.645 82.7229 263.277 82.0918C264.917 80.4509 267.063 79.3149 274.005 76.2856L279.812 73.7611L282.525 74.834C296.031 80.1353 312.629 103.108 323.358 131.445C325.062 135.926 325.82 137.314 326.009 136.178C326.135 135.042 326.64 135.862 328.092 139.523C329.165 142.237 330.174 144.446 330.364 144.446C330.616 144.446 330.679 143.12 330.49 141.416C329.417 130.372 324.621 115.288 315.659 95.2189C310.673 84.1113 302.027 66.8189 300.701 65.3673C299.818 64.4207 297.546 62.8429 295.589 61.9593C292.56 60.4447 291.235 60.2553 285.176 60.066C281.137 60.0029 277.098 60.2553 275.583 60.6971Z" fill="white"/>
<path d="M113.577 63.0953C93.4446 65.9353 77.0357 93.7673 72.1761 133.086C71.2926 140.28 71.4188 153.66 72.4286 160.223C72.8704 163.19 73.1228 166.093 72.9335 166.661C72.8072 167.292 72.9966 167.797 73.3121 167.797C73.6908 167.797 74.3219 168.996 74.7006 170.447C76.8464 179.157 83.1575 194.177 88.7112 204.086C92.6872 211.154 99.5664 221.504 101.46 223.271L102.911 224.597L109.664 221.441C123.359 215.004 135.666 213.426 146.837 216.708C149.74 217.528 153.148 218.79 154.347 219.548C156.429 220.747 156.619 220.747 157.502 219.737C159.333 217.718 163.056 210.334 165.013 204.969C170.882 188.813 174.29 162.937 172.397 149.305C171.513 143.183 171.513 143.057 172.775 142.552C173.722 142.174 173.848 141.984 173.091 141.984C171.829 141.921 170.882 139.523 170.314 135.294C169.683 130.372 166.338 113.837 164.571 107.273C163.561 103.423 162.109 99.7629 160.342 96.8598C158.828 94.3985 157.439 91.9371 157.25 91.4322C156.619 89.6651 149.361 80.3878 145.953 76.9167C135.035 65.746 125 61.5176 113.577 63.0953ZM125.821 68.3336C138.38 71.8047 147.089 79.8198 156.682 96.7336C158.828 100.52 161.163 105.632 161.857 108.094C165.013 119.201 166.464 125.134 167.789 132.707L169.241 140.848L164.381 140.28C161.731 139.965 152.643 139.712 144.123 139.712C129.67 139.775 128.156 139.902 120.456 141.542C115.975 142.489 110.863 143.688 109.096 144.256C104.11 145.771 93.8864 149.999 90.6046 151.956C88.9637 152.902 87.3228 153.597 86.881 153.47C86.5024 153.344 85.9975 153.786 85.745 154.48C85.5557 155.238 85.1139 155.806 84.8615 155.806C84.609 155.806 82.4632 157.383 80.1281 159.34C77.793 161.296 75.7735 162.748 75.5841 162.622C74.1957 161.17 73.5646 143.878 74.7006 135.294C75.5841 128.289 77.8561 115.982 78.8659 112.574C86.6917 86.9514 96.2215 72.1202 107.581 68.1442C112.441 66.3771 119.131 66.4402 125.821 68.3336ZM168.862 143.625C169.367 144.761 169.62 149.999 169.62 158.33C169.62 169.059 169.367 172.656 168.231 179.472C165.644 193.988 163.245 201.75 158.512 210.902C155.861 216.014 154.789 217.023 153.4 215.887C153.021 215.509 150.686 214.436 148.225 213.489C144.06 211.848 143.176 211.722 134.341 211.659C125.505 211.659 124.495 211.785 119.509 213.489C116.543 214.499 111.936 216.392 109.285 217.718C106.572 219.106 104.11 220.179 103.795 220.179C102.028 220.179 89.5948 199.857 84.6721 188.939C81.9584 182.88 77.7299 170.889 78.1717 170.447C78.361 170.258 78.2348 169.816 77.9192 169.438C77.6668 169.059 77.225 167.986 76.9726 167.039C76.5939 165.462 76.9726 165.02 81.0748 162.117C83.5992 160.413 85.8081 158.961 86.0606 158.961C86.313 158.961 87.0072 160.854 87.6384 163.19C97.3575 199.731 127.272 216.014 146.079 195.061C149.992 190.643 154.347 181.934 156.177 174.739C157.755 168.428 158.512 151.893 157.502 146.339C157.124 144.446 156.997 142.678 157.187 142.426C157.313 142.11 159.837 141.921 162.804 141.921C168.042 141.921 168.168 141.984 168.862 143.625ZM155.42 146.15C156.429 151.388 156.303 164.136 155.104 169.374C150.876 188.245 141.283 198.974 128.029 199.857C117.805 200.488 108.086 195.124 99.8188 184.269C95.3379 178.336 90.4784 167.734 88.585 159.845C88.1432 157.888 88.2064 157.762 92.3086 155.49C94.5806 154.228 97.9255 152.65 99.7557 152.019C103.479 150.694 103.732 150.883 103.732 155.238V157.699L106.256 157.32C108.402 156.942 108.97 157.131 110.611 158.772C114.019 162.243 114.461 167.986 111.557 172.088C110.548 173.54 110.611 173.666 112.63 175.749C118.184 181.492 124.748 182.817 130.365 179.346C132.005 178.399 133.331 177.453 133.394 177.263C133.394 177.074 132.51 176.443 131.501 175.875C130.428 175.307 129.607 174.486 129.607 174.171C129.607 173.098 132.195 171.836 136.234 170.889C138.317 170.447 139.516 169.942 138.885 169.816C138.127 169.69 137.875 169.248 138.064 168.617C140.084 163.442 140.147 152.271 138.19 147.033C137.622 145.518 137.307 144.067 137.559 143.878C137.875 143.562 141.535 143.246 152.706 142.678C154.599 142.552 154.725 142.678 155.42 146.15Z" fill="white"/>
<path d="M265.927 88.6552C250.339 92.8206 231.721 116.613 223.264 143.183C218.026 159.655 217.773 174.739 222.444 199.92C225.725 217.717 232.857 241.005 235.066 241.005C235.445 241.005 237.527 240.501 239.673 239.933C245.227 238.355 262.961 238.418 267.505 239.996C275.899 242.962 279.875 245.171 285.05 249.715L287.511 251.797L289.468 250.283C293.696 247.064 300.134 238.229 304.362 229.961C307.896 222.829 309.158 219.926 313.071 208.819C316.669 198.595 318.12 193.104 318.436 189.065C318.562 187.109 318.751 186.793 319.698 187.109C321.086 187.55 321.213 186.541 319.887 185.468C319.13 184.837 318.941 182.88 318.941 175.37C318.941 161.99 316.795 142.047 314.712 136.241C309.6 121.662 302.027 108.157 294.075 99.321C284.987 89.2233 276.278 85.8784 265.927 88.6552ZM277.855 91.369C283.03 93.0099 287.196 95.7868 291.866 100.773C298.43 107.778 304.046 117.055 309.348 129.614C312.63 137.44 313.261 139.586 314.27 146.97C316.101 160.539 316.353 163.694 316.353 173.666L316.416 183.701L314.397 182.375C310.799 179.977 296.094 172.972 290.604 171.015C275.899 165.714 265.359 163.757 251.096 163.757C238.916 163.694 230.964 164.893 224.526 167.797C222.885 168.491 221.434 169.059 221.245 169.059C220.677 169.059 221.749 160.223 223.201 152.65C227.366 131.76 242.071 106.894 256.145 96.7966C260.942 93.3886 263.15 92.2526 267.316 91.1797C271.86 89.9175 273.374 89.9806 277.855 91.369ZM249.455 169.185C249.14 170.321 248.887 171.331 248.887 171.394C248.887 171.457 250.086 171.583 251.538 171.709C253.747 171.836 254.441 172.277 255.64 174.045C257.912 177.389 257.66 181.365 254.883 185.468C252.99 188.245 252.8 188.939 253.431 190.075C255.009 193.041 256.839 195.061 259.869 197.017C262.519 198.721 263.592 199.037 266.622 198.973C268.957 198.91 270.85 198.532 271.923 197.837L273.627 196.701L271.986 194.997C270.471 193.42 270.408 193.167 271.355 192.41C271.986 191.842 273.753 191.526 275.836 191.589L279.307 191.716L281.39 187.172C283.409 182.817 285.239 176.001 284.924 174.171C284.798 173.603 285.113 173.413 285.807 173.666C286.312 173.918 288.837 174.676 291.298 175.433C293.759 176.19 296.536 177.2 297.42 177.642C298.303 178.147 299.439 178.525 299.944 178.525C301.964 178.525 298.808 190.58 294.895 197.901C292.182 202.949 290.856 204.717 286.438 209.387C282.526 213.489 280.569 214.751 274.7 217.023C265.801 220.368 254.441 216.897 247.057 208.503C240.62 201.119 235.381 188.371 234.624 177.894C234.435 175.622 234.245 172.719 234.119 171.457C233.993 169.753 234.182 168.996 234.94 168.68C236.265 168.112 242.639 167.355 246.805 167.229L250.086 167.165L249.455 169.185ZM231.342 175.875C232.857 198.658 245.164 217.781 260.942 221.82C272.365 224.786 285.302 218.664 293.822 206.421C296.978 201.813 301.27 192.094 302.658 186.225C303.415 183.196 304.11 180.608 304.236 180.482C304.741 179.788 315.533 184.584 315.974 185.657C316.416 186.919 315.343 193.293 313.829 197.964C312.062 203.644 311.241 205.663 310.736 205.663C310.484 205.663 310.358 206.168 310.547 206.799C310.989 208.693 304.362 224.281 299.502 232.549C296.473 237.787 289.215 246.433 287.385 247.001C286.438 247.317 285.366 246.749 283.157 244.855C279.938 242.015 274.637 238.923 271.102 237.85C269.777 237.471 268.073 236.777 267.253 236.398C265.233 235.389 242.513 235.325 241.251 236.335C240.746 236.714 239.357 237.219 238.095 237.471C236.013 237.85 235.823 237.724 234.813 235.515C232.605 230.403 228.944 218.159 227.051 209.45C226.546 207.178 225.725 203.644 225.221 201.561C223.958 196.449 222.317 183.89 221.939 176.885L221.623 171.141L225.347 170.132C231.027 168.617 230.837 168.491 231.342 175.875Z" fill="white"/>
<path d="M185.524 291.621C184.893 291.999 182.684 292.126 180.664 291.999C178.077 291.81 176.941 291.936 176.941 292.441C176.941 293.388 182.557 294.019 190.446 294.019C193.602 294.019 198.02 294.461 200.292 294.966C202.564 295.47 206.792 296.291 209.758 296.796C216.006 297.806 224.337 300.014 227.24 301.277C228.313 301.782 229.449 302.223 229.765 302.223C230.017 302.223 231.721 302.981 233.425 303.801C235.192 304.685 236.959 305.379 237.401 305.379C237.78 305.379 238.158 305.631 238.158 305.947C238.158 306.262 238.916 306.704 239.799 306.894C240.746 307.146 241.314 307.462 241.188 307.588C241.062 307.777 239.989 307.651 238.916 307.335C237.843 307.02 236.77 306.957 236.644 307.209C236.454 307.462 232.731 307.651 228.376 307.588C224.022 307.462 220.487 307.525 220.487 307.714C220.487 307.84 220.866 308.598 221.371 309.355C222.065 310.428 222.191 311.438 221.686 313.836C221.055 317.181 220.172 318.632 218.846 318.632C218.405 318.632 216.953 319.137 215.691 319.705L213.419 320.841L211.589 318.758C209.948 316.928 209.758 316.297 209.758 312.321C209.758 308.03 209.064 306.452 207.739 307.777C207.36 308.156 206.981 310.238 206.981 312.321C206.918 316.802 206.35 317.37 201.996 317.37C198.84 317.37 195.622 316.108 195.054 314.719C194.927 314.214 194.99 312.195 195.306 310.238C195.937 306.389 195.748 305.379 194.359 305.379C193.476 305.379 193.16 306.957 192.403 314.214C191.709 320.715 191.961 320.399 187.291 320.841C182.368 321.409 178.708 320.526 177.256 318.443C176.751 317.686 176.309 315.792 176.309 314.151C176.309 310.428 175.678 307.272 174.984 307.272C174.669 307.272 174.416 309.102 174.416 311.311C174.416 316.55 173.722 318.317 171.134 319.642C168.736 320.904 160.91 321.157 159.774 320.021C159.396 319.642 158.828 316.55 158.449 313.142C158.133 309.734 157.755 306.894 157.692 306.767C157.629 306.704 156.871 306.894 155.988 307.209C154.536 307.777 154.41 308.03 154.852 310.68C155.357 314.214 154.284 317.118 152.075 318.001C150.497 318.569 144.691 317.496 143.618 316.486C143.365 316.234 143.113 314.467 143.05 312.637C143.05 310.806 142.671 308.724 142.356 308.093C141.725 307.083 141.598 307.146 141.03 308.724C140.652 309.734 140.336 312.069 140.336 313.962C140.336 316.928 140.084 317.686 138.632 319.011C137.685 319.894 136.486 320.462 135.918 320.273C132.826 319.326 130.112 318.127 129.544 317.559C128.345 316.36 127.84 310.554 128.787 309.166C129.355 308.345 129.418 307.903 128.976 307.903C128.597 307.903 128.471 307.588 128.724 307.083C129.102 306.515 128.976 306.515 128.282 307.02C127.777 307.462 125.253 307.714 122.539 307.714H117.616L120.014 306.641C121.277 306.073 123.485 305.19 124.874 304.748C126.262 304.306 127.714 303.738 128.029 303.422C128.408 303.17 130.112 302.602 131.816 302.16C133.583 301.782 135.287 301.214 135.603 300.898C135.981 300.646 137.307 300.267 138.632 300.014C140.841 299.573 141.914 298.437 140.084 298.437C139.579 298.437 138.632 298.247 138.001 298.058C137.054 297.742 136.991 297.806 137.812 298.437C138.569 299.005 138.317 299.131 136.549 298.815C135.161 298.563 134.656 298.626 135.224 299.005C136.549 299.825 134.909 300.519 131.69 300.519C129.86 300.519 129.229 300.709 129.733 301.087C130.238 301.466 129.86 301.529 128.661 301.277C127.651 301.024 126.957 301.087 127.272 301.34C127.966 302.097 122.728 304.306 120.014 304.369C118.752 304.369 117.932 304.558 118.247 304.748C118.563 304.937 117.932 305.505 116.859 305.947C115.281 306.704 114.839 306.704 114.334 305.947C113.829 305.253 113.829 305.316 114.082 306.262C114.397 307.272 114.208 307.335 112.757 307.02C111.684 306.767 111.305 306.83 111.81 307.146C112.378 307.525 110.674 308.724 106.13 310.996C102.533 312.826 99.1246 314.782 98.5566 315.287C97.9886 315.792 97.1681 316.045 96.7264 315.729C96.2846 315.477 96.0953 315.54 96.3477 315.918C96.8526 316.739 95.2748 318.19 94.6437 317.496C94.3912 317.244 94.2019 317.307 94.3281 317.686C94.5806 318.758 92.8766 321.788 92.1824 321.346C91.8037 321.094 91.6775 321.346 91.9299 322.04C92.3717 323.239 92.3717 323.302 88.5219 327.657C86.9441 329.424 85.4926 330.56 84.9877 330.371C84.4828 330.182 84.2304 330.245 84.4197 330.56C84.7984 331.128 82.0215 333.968 81.5797 333.463C81.3904 333.274 80.3806 334.031 79.3708 335.104C77.8561 336.745 77.793 336.998 78.929 336.366C79.6864 335.988 80.633 335.167 80.9486 334.536C81.3272 333.968 81.6428 333.779 81.6428 334.158C81.6428 335.167 78.1717 338.26 77.5406 337.755C77.2881 337.439 77.225 337.629 77.4775 338.007C77.7299 338.449 77.6037 338.828 77.2881 338.828C76.9095 338.828 76.657 339.017 76.7201 339.27C76.8464 339.711 75.3948 342.299 74.1957 343.877C73.6277 344.697 72.9966 342.236 73.5015 341.1C74.1326 339.838 74.1326 339.838 73.1859 340.974C72.4917 341.794 72.4286 342.488 72.8072 343.309C73.7539 345.013 73.5015 345.644 72.4917 344.255C71.9868 343.561 71.545 343.309 71.545 343.687C71.545 344.129 71.8606 344.634 72.1761 344.823C72.5548 345.013 72.8072 345.644 72.8072 346.149C72.8072 346.654 72.5548 346.969 72.2392 346.78C71.9237 346.59 71.6712 346.78 71.7344 347.222C71.7975 349.557 71.4819 350.314 70.5984 349.935C69.9041 349.683 69.3992 350.125 69.0206 351.198C68.2001 353.217 68.2632 353.533 69.0206 353.028C69.7779 352.586 69.2099 355.678 68.3895 356.814C67.2535 358.329 64.6659 380.039 65.7388 378.903C65.9281 378.714 66.433 378.903 66.8748 379.282C67.3797 379.724 67.7584 379.724 68.0739 379.219C68.2632 378.903 68.8312 378.588 69.2099 378.588C69.6517 378.588 68.3895 379.661 66.433 380.986C60.6899 384.773 53.2428 391.147 53.2428 392.22C53.2428 392.914 53.5584 393.103 54.2526 392.851C55.8935 392.22 64.6659 394.366 69.3361 396.574C77.5406 400.487 79.3708 402.822 77.1619 406.672C76.4677 407.871 75.4579 410.333 74.953 412.163C73.9432 416.076 72.6179 431.664 72.9335 436.65L73.1228 440.121L73.9432 437.597C74.7637 434.946 78.1086 429.897 84.3566 421.882C88.3957 416.707 89.3424 416.265 95.7166 416.328C100.387 416.391 104.615 417.275 114.271 420.052C118.941 421.377 121.845 422.576 121.718 423.018C121.592 423.397 121.15 427.31 120.772 431.79C119.951 441.636 117.679 452.428 114.713 461.263C110.989 472.118 107.771 477.798 99.0615 488.906C80.9486 512.068 73.3753 519.136 61.1317 524.122C57.0295 525.826 56.0828 525.952 48.825 525.889C41.441 525.889 40.6206 525.763 35.761 523.806C32.8579 522.67 30.3966 521.471 30.1441 521.156C29.9548 520.84 28.6295 520.588 27.1148 520.588C20.0463 520.588 9.63301 510.932 1.80723 497.174C-0.654104 492.819 -0.590993 494.144 1.93345 499.761C3.82679 504.116 9.38057 511.374 13.8615 515.476C20.1726 521.282 25.6001 524.374 34.3095 527.278C39.0428 528.855 40.6206 529.045 47.8784 529.045C55.5779 529.045 56.3984 528.918 60.9424 527.088C68.705 523.996 74.8899 519.767 81.8952 512.699C94.8961 499.635 103.858 489.916 105.625 487.076C110.043 479.944 116.922 464.671 119.762 455.899C123.485 444.286 125.126 430.213 123.296 425.164C122.602 423.27 122.791 422.45 124.811 417.086C126.136 413.804 128.408 408.755 129.986 405.915C133.078 400.235 139.957 390.579 140.967 390.579C141.283 390.579 149.613 383.51 159.396 374.801C179.023 357.509 177.824 358.266 187.543 357.382C194.549 356.751 194.864 357.004 207.676 371.961C221.371 387.991 226.925 393.419 230.711 394.366C232.226 394.744 235.129 395.754 237.275 396.574C239.358 397.395 242.134 398.215 243.397 398.468C244.722 398.72 245.858 399.162 246.047 399.414C246.237 399.73 248.446 400.235 250.97 400.614C253.431 401.055 256.587 401.56 257.912 401.876C259.238 402.191 260.437 402.128 260.626 401.876C260.815 401.56 262.014 401.308 263.277 401.245C269.146 401.118 275.015 396.638 278.234 389.758C279.812 386.477 280.38 385.656 280.695 386.54C280.885 387.171 280.885 386.666 280.695 385.341C280.443 383.7 280.569 383.006 281.011 383.321C281.453 383.51 281.516 383.321 281.326 382.69C281.074 382.185 281.263 380.923 281.705 379.913C282.526 377.894 283.535 360.854 282.841 361.358C282.526 361.485 282.336 360.727 282.336 359.654C282.336 358.582 282.021 357.13 281.705 356.436C281.326 355.742 280.948 353.974 280.885 352.46C280.822 350.945 280.632 349.809 280.506 349.935C280.001 350.377 278.613 345.581 278.991 344.886C279.181 344.508 279.118 344.382 278.865 344.634C278.045 345.391 275.52 338.702 276.214 337.755C276.53 337.313 277.035 337.124 277.35 337.313C277.666 337.502 277.603 336.934 277.161 336.051C276.782 335.167 276.151 334.41 275.836 334.41C275.52 334.41 275.583 334.852 276.025 335.357C276.656 336.114 276.656 336.556 276.088 337.124C275.142 338.07 274.069 336.619 274.637 335.167C274.826 334.536 274.7 334.347 274.258 334.662C273.564 335.104 268.894 328.478 268.894 327.026C268.894 326.584 268.641 326.395 268.389 326.521C267.758 326.963 262.078 320.147 262.646 319.642C262.835 319.39 262.519 319.39 261.888 319.642C261.005 319.958 260.815 319.894 261.131 319.39C261.383 318.948 261.194 318.632 260.689 318.632C259.679 318.632 257.534 316.486 258.102 315.982C258.291 315.792 258.038 315.666 257.47 315.666C256.966 315.729 256.587 315.54 256.65 315.224C256.713 314.909 256.145 314.404 255.325 314.151C254.504 313.836 253.999 313.331 254.252 313.015C254.441 312.7 254.252 312.195 253.873 311.942C253.368 311.69 253.305 311.753 253.558 312.195C254.252 313.331 252.8 313.078 251.538 311.816C249.834 310.238 243.902 307.02 233.551 302.223C232.037 301.529 231.469 300.961 231.974 300.709C232.415 300.519 232.163 300.519 231.342 300.709C230.585 300.898 229.07 300.582 227.998 300.078C226.925 299.51 225.031 298.878 223.769 298.689C221.813 298.31 221.623 298.184 222.696 297.742C223.454 297.427 222.949 297.364 221.371 297.616C219.73 297.806 218.594 297.679 218.342 297.238C218.089 296.859 217.269 296.543 216.511 296.48C215.186 296.417 215.249 296.354 216.701 295.849C217.9 295.47 217.71 295.407 215.754 295.66C214.366 295.786 210.831 295.47 207.865 294.902C204.899 294.271 201.365 293.766 199.976 293.64C196.694 293.451 196.631 293.388 197.957 292.883C198.588 292.63 196 292.504 192.277 292.63C187.606 292.757 185.776 292.63 186.407 292.189C187.67 291.305 186.975 290.8 185.524 291.621ZM125.821 310.049C126.957 311.501 126.01 317.37 124.243 319.39C122.539 321.409 120.141 321.725 118.815 320.147C118.31 319.516 117.932 317.622 117.932 315.603C117.932 312.321 118.058 312.006 120.077 310.617C122.539 308.976 124.685 308.724 125.821 310.049ZM230.964 311.122C232.668 312.763 232.983 316.613 231.658 319.263C230.459 321.598 227.745 321.725 225.978 319.516C224.337 317.433 223.39 311.248 224.463 309.923C225.473 308.724 229.134 309.418 230.964 311.122Z" fill="white"/>
<path d="M42.5139 432.422C38.8534 434.252 37.8437 440.31 40.6837 443.34C45.5432 448.515 53.2428 445.675 53.2428 438.733C53.2428 436.334 52.9272 435.577 51.097 433.747C49.393 432.043 48.4463 431.601 46.553 431.601C45.1646 431.601 43.3974 431.98 42.5139 432.422Z" fill="white"/>
<path d="M80.8223 454.195C78.6766 456.53 77.225 460.885 77.225 465.05C77.225 470.036 78.2348 472.245 80.5068 472.497C81.8952 472.686 82.5263 472.245 83.7886 470.288C85.5557 467.574 86.8179 461.263 86.2499 457.666C85.6188 453.501 82.9681 451.797 80.8223 454.195Z" fill="white"/>
</svg>
