<svg width="30" height="29" viewBox="0 0 30 29" fill="none" xmlns="http://www.w3.org/2000/svg">
<path d="M11.9824 25.251V28.0656L11.2477 27.5158C11.1342 27.4308 8.43315 25.3994 5.69412 22.4865C1.91574 18.4682 0 14.8611 0 11.7659V11.4591C0 5.33884 5.37529 0.359619 11.9824 0.359619C18.5896 0.359619 23.9648 5.33884 23.9648 11.4591V11.7659C23.9648 12.0258 23.95 12.2898 23.923 12.557L21.5797 10.5767C21.0997 6.0633 16.9789 2.52537 11.9824 2.52537C6.66458 2.52537 2.33803 6.53313 2.33803 11.4591V11.7659C2.33803 16.9964 9.61327 23.3283 11.9824 25.251V25.251ZM19.1718 23.6955H22.6788V20.4469H19.1718V23.6955ZM11.9824 6.85688C14.7219 6.85688 16.9508 8.9215 16.9508 11.4591C16.9508 13.9968 14.7219 16.0614 11.9824 16.0614C9.24294 16.0614 7.01408 13.9968 7.01408 11.4591C7.01408 8.9215 9.24294 6.85688 11.9824 6.85688ZM11.9824 9.02263C10.532 9.02263 9.35211 10.1156 9.35211 11.4591C9.35211 12.8025 10.532 13.8956 11.9824 13.8956C13.4326 13.8956 14.6127 12.8025 14.6127 11.4591C14.6127 10.1156 13.4326 9.02263 11.9824 9.02263ZM28.4244 22.2239L27.767 21.6684V25.1452C27.767 26.7642 26.345 28.0813 24.5972 28.0813H17.195C15.4472 28.0813 14.0252 26.7642 14.0252 25.1452V21.6684L13.3678 22.2239L11.7922 20.624L20.896 12.9305L30 20.624L28.4244 22.2239ZM25.429 19.6926L20.896 15.8621L16.3632 19.6926V25.145C16.3632 25.5699 16.7363 25.9155 17.195 25.9155H24.5972C25.0559 25.9155 25.429 25.5699 25.429 25.145V19.6926Z" fill="white"/>
</svg>
