<svg width="30" height="30" viewBox="0 0 30 30" fill="none" xmlns="http://www.w3.org/2000/svg">
<g clip-path="url(#clip0)">
<path d="M29.2131 23.1435L23.141 19.0942C22.3704 18.5844 21.3375 18.7521 20.7678 19.4796L18.9991 21.7537C18.7718 22.0535 18.3586 22.1404 18.0297 21.9577L17.6933 21.7722C16.5779 21.1643 15.1902 20.4075 12.3941 17.6104C9.59799 14.8133 8.83961 13.4245 8.23167 12.3112L8.04718 11.9747C7.862 11.6459 7.9473 11.231 8.24713 11.0019L10.5198 9.23364C11.2469 8.6639 11.4149 7.63128 10.9057 6.86048L6.85632 0.788373C6.33451 0.00345041 5.28759 -0.232179 4.47976 0.253433L1.94062 1.77869C1.14281 2.24773 0.557489 3.00734 0.307389 3.89836C-0.606948 7.22986 0.080899 12.9795 8.55066 21.4503C15.2882 28.1873 20.3039 29.999 23.7514 29.999C24.5449 30.0024 25.3352 29.8992 26.1011 29.6921C26.9923 29.4423 27.752 28.8569 28.2208 28.0588L29.7476 25.5212C30.2339 24.7132 29.9984 23.6657 29.2131 23.1435ZM28.8861 25.0083L27.3629 27.5474C27.0263 28.1234 26.4799 28.5469 25.8381 28.7292C22.7625 29.5736 17.3893 28.8742 9.25802 20.7429C1.1267 12.6116 0.427372 7.23888 1.27176 4.16287C1.45431 3.52031 1.87835 2.97319 2.45506 2.63609L4.9942 1.11282C5.34471 0.901911 5.7991 1.00414 6.02553 1.34476L8.22522 4.64725L10.0715 7.41633C10.2926 7.75068 10.2199 8.1988 9.90451 8.4462L7.63135 10.2144C6.93957 10.7434 6.74202 11.7005 7.16794 12.4601L7.34844 12.7881C7.98737 13.9599 8.78172 15.4176 11.6818 18.3173C14.5819 21.2168 16.0392 22.0112 17.2105 22.6501L17.5389 22.8311C18.2985 23.2569 19.2556 23.0594 19.7846 22.3676L21.5528 20.0945C21.8003 19.7792 22.2482 19.7067 22.5827 19.9275L28.6543 23.9769C28.9951 24.2032 29.0973 24.6578 28.8861 25.0083Z" fill="white" stroke="white"/>
<path d="M16.9991 5.00262C21.6906 5.00783 25.4925 8.80983 25.4978 13.5014C25.4978 13.7775 25.7216 14.0013 25.9977 14.0013C26.2738 14.0013 26.4976 13.7775 26.4976 13.5014C26.4918 8.25784 22.2426 4.00855 16.9991 4.00281C16.7229 4.00281 16.4991 4.2266 16.4991 4.50271C16.4991 4.77883 16.7229 5.00262 16.9991 5.00262Z" fill="white" stroke="white"/>
<path d="M16.9991 8.00225C20.0347 8.00583 22.4947 10.4658 22.4983 13.5015C22.4983 13.7776 22.7221 14.0014 22.9982 14.0014C23.2743 14.0014 23.4981 13.7776 23.4981 13.5015C23.4939 9.91383 20.5866 7.00654 16.9991 7.00244C16.7229 7.00244 16.4991 7.22624 16.4991 7.50235C16.4991 7.77846 16.7229 8.00225 16.9991 8.00225Z" fill="white" stroke="white"/>
<path d="M16.9991 11.0019C18.3788 11.0035 19.497 12.1217 19.4987 13.5015C19.4987 13.7776 19.7226 14.0014 19.9986 14.0014C20.2747 14.0014 20.4985 13.7776 20.4985 13.5015C20.4963 11.5698 18.9308 10.0042 16.9991 10.0021C16.7229 10.0021 16.4991 10.2259 16.4991 10.502C16.4991 10.7781 16.7229 11.0019 16.9991 11.0019Z" fill="white" stroke="white"/>
</g>
<defs>
<clipPath id="clip0">
<rect width="30" height="30" fill="white"/>
</clipPath>
</defs>
</svg>
