<svg width="68" height="59" viewBox="0 0 68 59" fill="none" xmlns="http://www.w3.org/2000/svg">
<path d="M33.5134 0.190771C33.3115 0.489934 33.3564 1.0359 33.6256 1.8212C33.9322 2.68877 34.0295 3.22726 33.9771 3.66853L33.9248 4.02004L33.4311 4.2145C32.6234 4.5361 30.7312 5.57569 30.1254 6.03191C29.8188 6.26376 29.2803 6.68259 28.9362 6.96679C27.403 8.2158 26.3859 8.70941 25.1892 8.79168C23.6037 8.88891 22.0331 8.04378 20.6868 6.36099C20.2904 5.85989 19.9315 5.62804 19.5051 5.58317L19.2434 5.56073L19.2509 6.5704C19.2509 7.12385 19.2957 7.78201 19.3481 8.02882C19.8193 10.3324 21.0982 11.9329 23.3419 13.0547C23.7682 13.2716 24.2095 13.4661 24.3142 13.4885C24.6582 13.5783 24.6059 13.6456 24.0449 13.8625C21.9059 14.6927 19.9988 16.1885 18.8096 17.9834C17.9719 19.2399 16.9623 21.5061 16.9623 22.1268C16.9623 22.5008 17.1567 22.8523 17.4708 23.0617C17.8373 23.301 19.9165 24.0714 20.9411 24.3406C21.9433 24.6024 23.5289 24.6697 24.3142 24.4902C24.5984 24.4229 24.8601 24.3706 24.9125 24.3706C25.0396 24.3706 24.5236 24.8716 24.03 25.2306C22.9904 25.9785 21.7863 26.4273 19.6547 26.876C17.9645 27.2276 17.0894 27.4594 16.2144 27.7885C13.7538 28.7084 11.9438 30.1294 10.4779 32.2984C9.64027 33.5324 9.22144 33.9662 8.58572 34.2653C8.06219 34.5196 8.01732 34.5196 6.04285 34.4673C5.1304 34.4374 4.64426 34.5795 4.11325 35.0357C3.71686 35.3722 3.32047 36.18 3.16341 36.9728C2.99139 37.8553 2.86425 38.0647 2.4155 38.2367C1.30112 38.6705 0.78507 39.0145 0.433555 39.5904C0.0446439 40.2262 -0.0899791 41.2882 0.059602 42.6494L0.149351 43.5244L0.403639 43.33C0.822466 43.0084 1.31608 42.8214 1.59281 42.8737C2.11634 42.971 2.60996 43.8161 2.60996 44.6014C2.60996 44.8033 2.54265 45.2895 2.46038 45.6634C2.29584 46.3814 2.25096 47.1069 2.37063 47.1069C2.48282 47.1069 4.1656 45.4615 4.50964 45.0127C5.21267 44.0928 5.5941 43.143 5.5941 42.2829C5.5941 41.5051 5.22015 40.3458 4.65174 39.3661C3.94871 38.1545 3.87392 37.9824 3.87392 37.616C3.87392 36.9129 4.56199 36.2099 5.42956 36.0304C5.88579 35.9407 7.40403 35.993 7.81538 36.1201C7.95 36.165 8.1295 36.2847 8.21177 36.3894C8.35387 36.5689 8.36135 36.6811 8.35387 38.2367C8.3464 40.3907 8.55581 41.7294 9.10926 43.1205C9.58792 44.3172 10.1189 45.1025 11.2632 46.3066C12.4524 47.5556 13.0432 48.5055 13.5144 49.919C13.9706 51.2727 14.008 51.714 13.9856 54.7654C13.9632 57.8842 13.9856 58.0188 14.4792 58.49C15.2645 59.2454 15.8254 59.1706 16.5958 58.2058C17.3063 57.3083 17.8074 57.2335 18.6301 57.8842C19.2733 58.3928 19.6323 58.5723 20.0137 58.5723C20.2755 58.5723 20.3802 58.5274 20.5896 58.3255C21.0907 57.8393 21.2702 56.7848 21.1805 54.9225C21.1057 53.4192 21.1206 53.0976 21.2926 52.8658C21.517 52.5516 21.861 52.4843 22.8109 52.5666C23.2746 52.604 24.0973 52.6713 24.6358 52.7087C26.2812 52.8358 27.044 53.1874 27.1712 53.8679C27.2011 54.025 27.1787 54.5037 27.1039 54.9898C26.9019 56.4258 26.9767 57.3681 27.3507 58.1385C27.7396 58.9313 28.3379 59.1856 28.9961 58.8565C29.1531 58.7742 29.4897 58.475 29.7365 58.1908C30.2675 57.6 30.5891 57.4055 30.9481 57.4728C31.0827 57.5028 31.4716 57.7421 31.8231 57.9964C32.1747 58.2582 32.586 58.5124 32.7431 58.5573C33.3713 58.7443 33.8126 58.4601 34.0669 57.7047C34.1791 57.3681 34.194 56.9418 34.209 54.3765C34.2164 52.1702 34.2464 51.3774 34.3212 51.1979C34.5455 50.637 34.7998 50.3677 35.6225 49.8367C37.6643 48.5055 39.1601 47.0396 40.4091 45.1324C41.8077 43.0009 42.6304 40.9067 43.5428 37.1223C43.8495 35.8434 44.1561 35.1554 44.5301 34.8711C44.7544 34.6991 44.8367 34.6767 45.2555 34.7066C46.0932 34.759 47.6563 35.6265 49.2718 36.9354C51.4856 38.7378 51.8072 38.9846 52.3756 39.3361C54.6941 40.7721 57.2744 40.7048 58.658 39.1641C59.4134 38.3265 59.6677 37.4365 59.6677 35.6265C59.6677 33.7642 59.8397 32.605 60.3183 31.2214C60.9316 29.4488 61.6945 28.2971 63.5269 26.3749C64.6637 25.1783 65.2545 24.3855 65.8379 23.2487C67.1991 20.5862 67.6029 17.3253 66.9597 14.1841C66.1146 10.0257 63.3324 6.23384 60.0192 4.70064C59.2638 4.3566 58.1644 4.00509 57.237 3.82559C56.7134 3.72836 56.1824 3.69845 54.8437 3.69845C53.303 3.69845 53.0113 3.72089 52.039 3.8929C50.1543 4.24441 48.4715 4.79787 46.5419 5.71031C45.4051 6.24133 43.8943 7.10142 43.1689 7.60999L42.5705 8.04378L42.3163 7.82689C41.9797 7.55016 41.3515 7.31831 40.9252 7.31831C40.1399 7.31831 39.8557 8.27563 40.3418 9.30026L40.5138 9.66673L39.8482 10.295C39.1152 10.9756 37.9186 12.3143 37.1482 13.3016C36.3929 14.2664 35.286 15.9043 35.0765 16.3605C34.8821 16.7793 34.7624 17.6618 34.8896 17.7366C34.927 17.7591 35.2037 17.43 35.4954 17.0037C37.7166 13.7802 40.626 11.1775 44.2982 9.1432C46.0633 8.16344 48.666 7.0715 50.5133 6.53301C54.7614 5.30644 58.4935 5.90477 61.0887 8.24571C64.4169 11.2598 65.6808 17.2206 63.8784 21.4537C63.1379 23.1963 62.3751 24.221 60.2286 26.3525C58.5084 28.0577 58.1195 28.5513 57.6109 29.6134C57.0575 30.7876 56.9752 32.2535 57.394 33.6072C57.5062 33.9737 57.6109 34.4523 57.6334 34.6692C57.7156 35.7163 57.2818 36.9354 56.691 37.3467C55.8907 37.9002 54.4398 37.5711 52.6748 36.4268C51.9044 35.9332 51.1939 35.3348 50.274 34.3925C48.5463 32.6349 47.8358 32.2909 45.7566 32.1862C43.7672 32.0964 41.9722 31.7973 40.4091 31.3186C39.4219 31.012 39.1152 30.9746 39.0554 31.1391C39.018 31.2363 39.1377 31.3934 39.5041 31.7374C40.08 32.2684 40.1399 32.5003 39.736 32.6125C39.2349 32.7471 37.9485 32.7621 37.0435 32.6424C36.2956 32.5452 34.1791 32.1114 33.6929 31.9543C33.4386 31.872 33.6854 32.1862 34.1043 32.4853C34.568 32.8144 34.8372 33.1061 34.8372 33.2781C34.8372 33.3604 34.5231 33.5698 33.8799 33.8989C32.3317 34.6991 31.6212 35.3797 30.978 36.6736C30.4844 37.6758 30.3872 38.132 30.3872 39.3661C30.3872 40.3234 30.4096 40.473 30.6041 41.0788C31.0453 42.4175 31.9353 43.4272 33.2741 44.1153C34.2538 44.6164 35.2336 45.3194 35.4879 45.6933C35.6449 45.9327 35.6749 46.0449 35.6375 46.3291C35.5926 46.7554 35.3907 46.9797 34.5455 47.5407C33.7228 48.0792 33.132 48.685 32.8029 49.3282C32.414 50.0611 32.2943 50.5323 32.2195 51.6541C32.1373 52.6937 32.07 52.9256 31.7334 53.2397C31.5763 53.3893 31.4417 53.4267 31.0229 53.4491C30.2002 53.5015 29.5944 53.2173 29.3102 52.6563C29.1157 52.2674 29.1008 52.1478 29.0035 50.8838C28.9587 50.263 28.854 49.4478 28.7792 49.0589C28.6296 48.3185 28.1659 47.2116 28.0313 47.2939C27.8592 47.3986 27.7396 47.7875 27.6648 48.483C27.5152 49.7919 27.2684 50.0088 25.7202 50.1733C24.2169 50.3378 22.6837 50.1434 21.8311 49.6797C21.3226 49.4104 20.7616 48.8944 20.4774 48.4531C20.3428 48.2512 20.2082 48.0792 20.1783 48.0792C20.096 48.0792 19.5575 49.3356 19.3556 49.9863C19.2583 50.293 19.1536 50.9586 19.1013 51.6093C18.9891 52.8358 18.8844 53.1126 18.4581 53.3295C18.2935 53.4117 18.0243 53.4641 17.755 53.4641C16.5659 53.4641 16.0648 52.9256 15.9526 51.5195C15.8254 49.9639 15.459 48.5055 14.9205 47.436C14.569 46.7404 13.8585 45.6859 13.3274 45.0875C12.1757 43.7862 11.5624 42.6793 11.1211 41.1236C10.9641 40.5552 10.9416 40.3383 10.9416 39.0669C10.9416 37.5187 11.0089 37.055 11.4427 35.8135C11.7868 34.8338 12.6394 33.1285 12.9909 32.7321C13.7164 31.9169 14.3745 31.9768 16.5135 33.0463C17.8298 33.7044 18.4132 33.8839 19.2808 33.8989C19.909 33.9063 20.0436 33.8839 20.44 33.6969C20.986 33.4426 21.5095 32.949 21.9508 32.2759C22.3771 31.6252 22.6837 30.9521 23.2895 29.3217C23.9402 27.5716 24.3291 26.6517 24.5984 26.2628C25.077 25.5747 25.6081 25.5522 26.7823 26.158C27.1936 26.3675 27.5376 26.532 27.5526 26.5245C27.5601 26.5096 27.4853 26.1132 27.3806 25.642C27.1338 24.5201 27.1263 23.503 27.3432 22.4709C27.4329 22.067 27.5077 21.708 27.5077 21.6781C27.5077 21.6407 27.2983 21.6631 27.044 21.7304C24.4638 22.3437 22.9829 22.4036 21.2627 21.9698C19.4902 21.521 19.3855 21.0947 20.5896 19.2474C21.6666 17.5871 23.7233 16.0314 25.3762 15.6201C26.1166 15.4331 26.4981 15.2685 26.715 15.0292C26.9169 14.8123 26.9543 14.2439 26.7972 13.8251C26.5504 13.1595 26.5429 13.1669 27.216 12.1722C28.0238 10.9606 28.5398 10.3324 29.3999 9.51715C31.2173 7.79697 33.5658 6.59284 36.1834 6.03191C36.8565 5.88981 37.1931 5.86737 38.5767 5.86737H40.1847L41.6431 6.19645C43.7597 6.66763 43.498 6.69007 44.3506 5.93469C44.9863 5.37375 45.2331 5.10451 45.2331 4.96988C45.2331 4.95492 44.8891 4.79787 44.4628 4.63333C43.5877 4.29677 42.5406 4.00509 41.7179 3.88542C40.9775 3.77324 38.1729 3.43668 37.7914 3.41424C37.5072 3.3918 37.4848 3.36937 37.2679 2.94306C36.6845 1.76137 35.3981 0.557244 34.2538 0.115978C33.8126 -0.0560373 33.663 -0.0410836 33.5134 0.190771Z" fill="#FFFEFE"/>
<path d="M56.6387 8.90397C56.2348 9.15078 56.0479 9.65936 56.2573 9.97348C56.3246 10.0782 56.6088 10.31 56.893 10.497C57.5586 10.9383 57.9775 11.402 58.2691 12.0153C58.486 12.4864 58.5085 12.5837 58.5309 13.526C58.5533 14.1842 58.5982 14.603 58.6655 14.7376C58.7852 14.9695 59.1367 15.0966 59.5181 15.0368C60.094 14.9545 60.2885 14.6254 60.3708 13.6008C60.5278 11.7086 59.7425 10.2128 58.0822 9.22557C57.439 8.84414 56.9229 8.72448 56.6387 8.90397Z" fill="#FFFEFE"/>
<path d="M32.7057 11.1252C32.1821 11.2523 31.868 11.5889 31.6586 12.2395C31.4941 12.7257 31.5389 13.3539 31.7633 13.855C32.0625 14.5356 33.1769 15.3957 33.9098 15.5154C34.2314 15.5602 34.6727 15.4256 34.9419 15.1863C35.3383 14.8348 35.4804 13.8849 35.2486 13.1295C34.8073 11.6786 33.7827 10.8709 32.7057 11.1252ZM33.9771 12.9575C34.2613 13.0772 34.538 13.4661 34.538 13.7353C34.538 14.1841 34.1342 14.573 33.6555 14.573C32.7132 14.573 32.5262 13.2941 33.4162 12.9351C33.6705 12.8379 33.6854 12.8379 33.9771 12.9575Z" fill="#FFFEFE"/>
<path d="M61.702 12.9724C61.702 14.1467 61.687 14.371 61.5449 14.8123C61.2682 15.6799 60.6998 16.2483 59.7574 16.5923C59.5256 16.6746 59.2788 16.7643 59.2189 16.7942C59.032 16.869 59.6602 17.0261 60.1538 17.0336C60.797 17.041 61.0962 16.9363 61.53 16.5474C62.2704 15.8818 62.6219 14.745 62.4424 13.5782C62.3452 12.9575 62.0984 12.2395 61.8366 11.8506L61.6945 11.6262L61.702 12.9724Z" fill="#FFFEFE"/>
<path d="M45.2481 13.2865C44.9339 13.9596 44.8741 14.558 45.0312 15.3358C45.263 16.4576 45.8389 17.5047 46.6242 18.2451C47.2001 18.7836 47.6862 19.0155 48.2322 19.0229C48.7408 19.0229 48.9128 18.8958 49.0399 18.4396C49.182 17.931 49.0549 17.7066 48.3743 17.3252C47.9181 17.0634 47.3572 16.4502 47.1403 15.9715C46.9234 15.5003 46.8037 14.8122 46.8037 14.0344C46.8037 13.7203 46.7663 13.3688 46.714 13.2641C46.6018 13.0173 46.3026 12.8602 45.8389 12.8004L45.4874 12.763L45.2481 13.2865Z" fill="#FFFEFE"/>
<path d="M44.186 18.1254C44.186 18.2899 44.8517 19.4716 45.2032 19.9353C45.9287 20.9076 46.7738 21.4087 47.6713 21.4087C48.1125 21.4087 48.2771 21.3713 48.6809 21.1768C48.9427 21.0422 49.2942 20.7954 49.4588 20.6309L49.7579 20.3167L49.4214 20.3766C49.2344 20.414 48.7483 20.4439 48.3369 20.4364C47.7161 20.4364 47.5142 20.399 47.1328 20.242C46.527 19.9877 45.9661 19.6212 45.3079 19.0528C44.3506 18.2077 44.186 18.073 44.186 18.1254Z" fill="#FFFEFE"/>
<path d="M52.4877 30.7426C51.8894 31.0492 51.5828 31.7223 51.7772 32.3057C52.0166 33.0087 53.3104 34.4223 54.0284 34.7738C54.6866 35.0879 55.2251 34.8037 55.3373 34.0857C55.5167 32.9564 54.9184 31.4456 54.0658 30.8548C53.5946 30.5332 52.9813 30.4883 52.4877 30.7426Z" fill="#FFFEFE"/>
<path d="M37.3577 49.9039C36.8117 50.1058 36.6846 50.3077 36.52 51.3324C36.3854 52.1999 36.3555 52.2673 35.8394 52.7908C35.6225 53.0152 35.3682 53.3667 35.2785 53.5761C35.0541 54.0697 35.0541 54.7653 35.286 55.3337C35.458 55.7749 36.3031 57.1137 36.6173 57.4428C36.8715 57.712 37.1931 57.7718 37.5895 57.6148C38.0009 57.4502 38.2477 57.1436 38.3973 56.6201C38.5169 56.2237 38.5169 56.1264 38.3973 55.1467C38.2701 54.0847 38.1804 52.7983 38.0831 50.8612L38.0383 49.7992H37.8363C37.7316 49.8066 37.5147 49.8515 37.3577 49.9039Z" fill="#FFFEFE"/>
<path d="M22.3696 53.7631C22.2201 53.823 22.1527 54.0025 22.1901 54.2343C22.1976 54.2642 22.2126 54.6531 22.2275 55.0944C22.2575 56.0143 22.3846 56.3958 22.8333 56.8894C23.3045 57.4129 24.2693 57.7644 24.6657 57.555C24.7704 57.5027 24.8976 57.368 24.9499 57.2558C25.0397 57.0689 25.2117 55.3262 25.2042 54.6681C25.1967 54.1446 24.8078 53.9351 23.5588 53.8005C22.4669 53.6734 22.5791 53.6809 22.3696 53.7631Z" fill="#FFFEFE"/>
</svg>
