<svg width="30" height="29" viewBox="0 0 30 29" fill="none" xmlns="http://www.w3.org/2000/svg">
<path d="M29.2131 21.9465L23.141 18.1066C22.3704 17.6232 21.3375 17.7823 20.7678 18.4721L18.9991 20.6286C18.7718 20.9128 18.3586 20.9953 18.0297 20.822L17.6933 20.6462C16.5779 20.0697 15.1902 19.352 12.3941 16.6996C9.59799 14.0471 8.8396 12.7302 8.23167 11.6745L8.04718 11.3554C7.86199 11.0436 7.94729 10.6501 8.24713 10.4329L10.5198 8.7561C11.2469 8.21583 11.4149 7.23662 10.9057 6.50569L6.85632 0.747658C6.33451 0.00333508 5.28759 -0.220106 4.47976 0.240387L1.94062 1.68676C1.14281 2.13153 0.557489 2.85185 0.307389 3.69678C-0.606948 6.85596 0.080899 12.3082 8.55066 20.3408C15.2882 26.7294 20.3039 28.4474 23.7514 28.4474C24.5449 28.4506 25.3352 28.3527 26.1011 28.1563C26.9923 27.9195 27.752 27.3643 28.2208 26.6076L29.7476 24.2012C30.2339 23.435 29.9984 22.4416 29.2131 21.9465ZM28.8861 23.7148L27.3629 26.1226C27.0263 26.6688 26.4799 27.0704 25.8381 27.2433C22.7625 28.044 17.3893 27.3808 9.25802 19.6701C1.1267 11.9593 0.427372 6.86452 1.27176 3.94761C1.45431 3.33829 1.87835 2.81946 2.45506 2.4998L4.9942 1.05532C5.34471 0.855323 5.7991 0.952266 6.02553 1.27526L8.22522 4.40694L10.0715 7.03279C10.2926 7.34984 10.2199 7.77478 9.90451 8.00939L7.63135 9.68615C6.93957 10.1878 6.74202 11.0953 7.16794 11.8157L7.34844 12.1267C7.98737 13.2379 8.78172 14.6202 11.6818 17.3699C14.5819 20.1194 16.0392 20.8728 17.2105 21.4786L17.5389 21.6502C18.2985 22.054 19.2556 21.8668 19.7846 21.2108L21.5528 19.0552C21.8003 18.7562 22.2482 18.6874 22.5827 18.8969L28.6543 22.7368C28.9951 22.9514 29.0973 23.3825 28.8861 23.7148Z" fill="white"/>
<path d="M16.9991 4.744C21.6906 4.74894 25.4926 8.35428 25.4978 12.8032C25.4978 13.065 25.7216 13.2772 25.9977 13.2772C26.2739 13.2772 26.4977 13.065 26.4977 12.8032C26.4919 7.83084 22.2426 3.80134 16.9991 3.7959C16.723 3.7959 16.4992 4.00812 16.4992 4.26995C16.4992 4.53178 16.723 4.744 16.9991 4.744Z" fill="white"/>
<path d="M16.9991 7.58823C20.0347 7.59162 22.4947 9.92437 22.4983 12.803C22.4983 13.0648 22.7221 13.277 22.9982 13.277C23.2743 13.277 23.4981 13.0648 23.4981 12.803C23.4939 9.40093 20.5867 6.64403 16.9991 6.64014C16.723 6.64014 16.4992 6.85236 16.4992 7.11419C16.4992 7.37602 16.723 7.58823 16.9991 7.58823Z" fill="white"/>
<path d="M16.9991 10.4327C18.3789 10.4343 19.497 11.4946 19.4987 12.8031C19.4987 13.0649 19.7226 13.2771 19.9986 13.2771C20.2747 13.2771 20.4985 13.0649 20.4985 12.8031C20.4963 10.9712 18.9309 9.48667 16.9991 9.48462C16.723 9.48462 16.4992 9.69684 16.4992 9.95867C16.4992 10.2205 16.723 10.4327 16.9991 10.4327Z" fill="white"/>
</svg>
